<?xml version="1.0" standalone="no"?>
<!DOCTYPE svg PUBLIC "-//W3C//DTD SVG 20010904//EN"
 "http://www.w3.org/TR/2001/REC-SVG-20010904/DTD/svg10.dtd">
<svg version="1.0" xmlns="http://www.w3.org/2000/svg"
 width="237.000000pt" height="231.000000pt" viewBox="0 0 237.000000 231.000000"
 preserveAspectRatio="xMidYMid meet">
<g transform="translate(0.000000,231.000000) scale(0.100000,-0.100000)"
fill="#43358a" stroke="none">
<path d="M740 2298 c0 -7 -12 -26 -26 -43 -28 -34 -170 -227 -215 -293 -16
-23 -33 -48 -39 -55 -6 -6 -33 -43 -60 -82 -27 -38 -57 -78 -67 -87 -9 -10
-13 -21 -9 -25 4 -5 49 -6 100 -5 68 3 95 0 103 -10 12 -14 27 -89 43 -218 6
-47 14 -119 19 -160 6 -41 12 -93 16 -115 5 -34 0 -48 -30 -95 -43 -66 -46
-88 -10 -64 14 9 25 20 25 25 0 20 30 8 34 -13 15 -76 26 -152 31 -218 3 -41
11 -89 17 -107 17 -48 1 -72 -65 -97 -31 -11 -57 -25 -57 -31 -1 -17 48 -17
82 -1 17 9 35 16 39 16 8 0 29 -87 29 -120 0 -13 -12 -22 -37 -31 -21 -6 -42
-15 -48 -19 -5 -4 -25 -11 -43 -15 -19 -4 -31 -12 -29 -18 6 -17 79 -12 117 8
20 10 36 13 41 8 13 -13 28 -98 38 -227 6 -59 12 -110 14 -112 5 -5 32 144 44
246 7 57 11 65 28 63 84 -11 185 4 200 27 8 12 92 13 99 1 13 -20 171 -47 181
-31 3 5 14 10 23 10 9 0 30 7 46 15 38 20 71 19 134 -5 63 -24 142 -25 197 -3
55 22 119 20 189 -6 44 -15 62 -18 67 -10 12 20 -2 39 -30 39 -14 0 -35 7 -45
15 -27 21 -151 20 -191 -1 -39 -20 -125 -20 -164 0 -40 21 -156 21 -196 0 -38
-20 -121 -20 -160 0 -40 21 -164 22 -191 1 -12 -9 -43 -14 -86 -15 -62 0 -68
2 -73 23 -7 25 0 101 10 117 3 6 34 10 68 10 38 0 74 6 92 16 38 21 131 21
170 0 41 -22 146 -21 188 1 40 21 124 20 165 -1 41 -21 147 -21 187 0 39 20
125 21 167 1 50 -23 82 -25 86 -5 2 11 -3 18 -11 18 -8 0 -27 6 -43 14 -16 8
-50 20 -75 27 -43 11 -53 10 -122 -14 -93 -33 -110 -33 -181 -2 -31 14 -69 25
-85 25 -29 0 -98 -21 -138 -41 -27 -14 -72 -8 -151 22 -62 23 -62 23 -130 5
-37 -10 -71 -22 -77 -27 -5 -5 -26 -9 -47 -9 -43 0 -63 25 -53 68 3 15 10 65
15 112 18 162 30 255 41 315 6 33 13 83 15 110 3 28 9 77 15 110 6 33 14 94
19 135 21 168 26 189 50 215 23 25 30 26 107 24 45 -2 85 -1 87 2 3 2 -8 24
-24 48 -16 24 -28 47 -25 51 8 13 102 40 138 40 83 0 204 -63 271 -142 52 -60
107 -181 121 -263 4 -22 11 -46 17 -52 6 -7 7 -20 4 -29 -6 -15 -9 -14 -31 6
-14 13 -25 35 -25 48 0 23 -31 84 -55 107 -28 28 -69 46 -108 47 -79 4 -137
-59 -176 -189 -25 -83 -27 -188 -6 -240 8 -19 15 -44 15 -55 0 -70 164 -273
247 -304 42 -16 113 -14 138 5 36 28 155 29 190 2 5 -5 25 -12 43 -16 31 -6
33 -5 30 16 -2 17 -12 25 -38 31 -19 5 -46 14 -59 21 -36 18 -111 15 -156 -7
-51 -25 -134 -25 -172 -1 -84 55 -165 173 -207 300 -17 54 -22 210 -7 220 5 3
13 20 17 37 9 43 48 103 78 123 40 27 103 19 146 -17 20 -17 50 -64 50 -79 0
-6 6 -25 14 -42 8 -18 16 -40 20 -49 8 -26 41 -22 60 7 14 22 15 33 3 103 -8
42 -19 87 -25 99 -7 12 -12 28 -12 36 0 32 -84 159 -137 207 -82 75 -122 92
-228 97 -74 4 -99 1 -141 -15 l-52 -21 -21 25 c-11 13 -37 48 -58 76 -20 29
-62 87 -92 130 -31 42 -63 86 -71 98 -8 12 -22 30 -30 40 -42 53 -50 66 -50
82 0 21 -50 26 -50 6z"/>
</g>
</svg>
