<?xml version="1.0" standalone="no"?>
<!DOCTYPE svg PUBLIC "-//W3C//DTD SVG 20010904//EN"
 "http://www.w3.org/TR/2001/REC-SVG-20010904/DTD/svg10.dtd">
<svg version="1.0" xmlns="http://www.w3.org/2000/svg"
 width="86.000000pt" height="62.000000pt" viewBox="0 0 86.000000 62.000000"
 preserveAspectRatio="xMidYMid meet">
<g transform="translate(0.000000,62.000000) scale(0.050000,-0.050000)"
fill="#43358a" stroke="none">
<path d="M654 1016 c-105 -166 -406 -661 -431 -709 -33 -64 -12 -67 529 -67
387 0 491 6 499 26 11 28 -477 839 -511 850 -10 4 -49 -41 -86 -100z m203
-171 c109 -178 110 -187 20 -123 -56 40 -61 41 -98 7 -35 -31 -42 -32 -85 -3
-43 28 -52 27 -115 -13 l-69 -43 47 80 c128 218 174 286 186 273 7 -7 58 -87
114 -178z"/>
<path d="M1165 730 c-57 -87 -62 -64 55 -250 55 -88 100 -178 100 -200 0 -35
13 -40 105 -40 180 1 180 6 -4 298 -179 286 -190 294 -256 192z"/>
</g>
</svg>
