<?xml version="1.0" standalone="no"?>
<!DOCTYPE svg PUBLIC "-//W3C//DTD SVG 20010904//EN"
 "http://www.w3.org/TR/2001/REC-SVG-20010904/DTD/svg10.dtd">
<svg version="1.0" xmlns="http://www.w3.org/2000/svg"
 width="273.000000pt" height="258.000000pt" viewBox="0 0 273.000000 258.000000"
 preserveAspectRatio="xMidYMid meet">
<g transform="translate(0.000000,258.000000) scale(0.100000,-0.100000)"
fill="#44358b" stroke="none">
<path d="M1402 2278 c-20 -10 -95 -122 -144 -217 -34 -67 -65 -115 -76 -119
-5 -1 -77 65 -160 147 -86 87 -158 151 -168 151 -22 0 -549 -522 -538 -533 4
-4 60 -7 125 -7 107 0 119 -2 129 -19 15 -29 14 -767 -2 -812 -6 -19 -21 -50
-33 -69 -32 -51 -35 -75 -14 -106 10 -15 16 -31 13 -36 -3 -4 -51 -8 -108 -8
-56 0 -106 -3 -110 -7 -10 -11 516 -533 537 -533 11 0 128 109 289 270 l269
270 445 0 c513 0 504 -2 504 84 0 26 -11 56 -35 96 -19 32 -35 60 -35 63 0 2
-24 45 -54 94 -29 49 -61 106 -71 126 -9 20 -23 41 -31 48 -8 6 -14 16 -14 21
0 9 -65 125 -100 178 -6 8 -14 24 -19 35 -5 12 -34 63 -65 113 -31 51 -56 95
-56 98 0 3 -36 66 -80 139 -44 73 -80 136 -80 139 0 3 -25 47 -56 98 -31 51
-59 99 -63 108 -3 8 -27 51 -53 96 -58 98 -91 118 -146 92z m62 -41 c17 -12
58 -77 88 -137 7 -14 37 -65 66 -115 30 -49 57 -96 61 -105 3 -8 32 -59 64
-112 31 -53 57 -99 57 -101 0 -2 31 -56 68 -118 37 -63 71 -121 75 -129 4 -8
11 -22 16 -30 18 -28 138 -234 177 -305 21 -38 51 -90 66 -115 15 -25 33 -56
40 -70 7 -14 29 -53 50 -88 44 -73 46 -91 13 -115 -22 -16 -64 -17 -597 -15
l-573 3 0 505 0 505 90 3 c76 2 92 0 102 -14 20 -28 18 -435 -2 -474 -9 -17
-19 -30 -23 -30 -5 0 -19 -25 -31 -55 l-23 -56 23 -60 c32 -87 77 -119 167
-119 111 0 172 60 174 170 1 54 -3 67 -31 106 l-31 45 0 263 c0 145 -3 277 -6
295 -4 17 -17 42 -30 56 -19 20 -32 25 -75 25 -44 0 -55 -4 -79 -30 -15 -16
-31 -30 -34 -30 -11 0 -106 102 -106 115 0 7 19 46 43 87 24 40 47 80 51 88 4
8 12 24 19 35 7 11 25 43 41 70 40 68 55 77 90 52z m7 -430 c9 -7 23 -26 32
-44 15 -27 17 -70 17 -302 l0 -270 30 -44 c39 -59 41 -116 4 -164 -88 -116
-254 -61 -254 84 0 29 9 53 35 89 l35 49 0 238 c0 172 3 243 13 258 10 17 10
23 0 26 -18 7 -16 40 5 68 19 27 57 32 83 12z m-887 -1081 c-3 -9 -10 -16 -15
-16 -11 0 -12 43 -2 54 10 10 24 -20 17 -38z"/>
<path d="M1429 1628 c0 -7 0 -112 1 -233 l1 -221 -41 -32 c-36 -30 -40 -37
-40 -78 0 -51 19 -77 64 -88 75 -18 139 50 110 119 -7 18 -25 42 -39 53 l-25
20 -2 232 c-2 176 -6 234 -15 238 -7 2 -13 -2 -14 -10z"/>
</g>
</svg>
