<?xml version="1.0" standalone="no"?>
<!DOCTYPE svg PUBLIC "-//W3C//DTD SVG 20010904//EN"
 "http://www.w3.org/TR/2001/REC-SVG-20010904/DTD/svg10.dtd">
<svg version="1.0" xmlns="http://www.w3.org/2000/svg"
 width="216.000000pt" height="156.000000pt" viewBox="0 0 216.000000 156.000000"
 preserveAspectRatio="xMidYMid meet">
<g transform="translate(0.000000,156.000000) scale(0.100000,-0.100000)"
fill="#433b6a" stroke="none">
<path d="M873 1502 c-34 -10 -68 -23 -75 -29 -6 -7 -17 -13 -23 -13 -6 0 -29
-17 -52 -38 -53 -50 -103 -143 -103 -193 l0 -39 -43 0 c-114 0 -218 -66 -270
-170 -30 -61 -29 -186 1 -246 28 -55 87 -112 142 -138 44 -21 55 -21 665 -21
l621 0 41 33 c23 18 56 51 74 73 29 37 32 46 32 117 0 66 -3 83 -25 117 -48
74 -112 115 -182 115 l-41 0 -14 57 c-21 91 -70 154 -155 198 -30 15 -56 19
-127 18 -49 -1 -89 2 -89 7 0 15 -95 105 -130 122 -38 19 -145 49 -170 47 -8
0 -43 -8 -77 -17z m168 -65 c47 -16 149 -93 149 -112 0 -8 4 -15 9 -15 5 0 12
-8 16 -19 5 -17 14 -18 96 -13 79 4 96 2 134 -17 75 -37 121 -116 127 -216 l3
-40 56 3 c69 4 123 -20 162 -72 22 -28 27 -45 27 -92 0 -65 -21 -106 -75 -142
-31 -22 -33 -22 -634 -22 -575 0 -603 1 -639 19 -45 24 -92 67 -92 85 0 8 -7
19 -15 26 -24 20 -21 154 6 196 48 78 151 127 244 116 57 -6 65 3 65 74 0 28
6 59 15 70 8 10 15 26 15 34 1 23 72 93 116 114 21 10 46 23 54 27 23 12 121
10 161 -4z"/>
<path d="M638 458 c-24 -40 -52 -94 -61 -119 -17 -44 -17 -48 2 -90 35 -83
129 -106 189 -48 18 18 35 43 38 56 10 36 -3 94 -30 144 -14 24 -35 63 -47 87
-12 23 -28 42 -35 42 -7 0 -32 -33 -56 -72z m80 -72 c30 -51 38 -113 16 -137
-35 -38 -104 -11 -104 42 0 25 48 129 60 129 4 0 17 -15 28 -34z"/>
<path d="M1030 453 c-83 -143 -109 -205 -110 -255 0 -108 105 -186 212 -157
46 12 87 38 88 55 0 6 7 17 15 24 20 17 20 128 1 167 -8 15 -17 35 -20 43 -3
8 -12 24 -18 35 -25 38 -63 101 -79 130 -9 17 -23 31 -30 33 -8 1 -33 -30 -59
-75z m114 -127 c57 -117 61 -162 15 -200 -57 -48 -106 -44 -156 14 -35 40 -31
81 18 170 5 8 19 36 31 63 13 26 28 47 34 47 6 0 32 -42 58 -94z"/>
<path d="M1460 513 c0 -9 -6 -24 -14 -32 -7 -9 -28 -43 -46 -76 -24 -45 -32
-73 -32 -113 -1 -49 2 -56 37 -87 29 -27 46 -35 75 -35 99 0 158 93 113 182
-71 142 -95 178 -120 178 -7 0 -13 -8 -13 -17z m65 -155 c31 -61 31 -75 3
-105 -60 -64 -129 21 -84 105 8 15 17 35 20 44 9 28 34 10 61 -44z"/>
</g>
</svg>
