<?xml version="1.0" standalone="no"?>
<!DOCTYPE svg PUBLIC "-//W3C//DTD SVG 20010904//EN"
 "http://www.w3.org/TR/2001/REC-SVG-20010904/DTD/svg10.dtd">
<svg version="1.0" xmlns="http://www.w3.org/2000/svg"
 width="267.000000pt" height="234.000000pt" viewBox="0 0 267.000000 234.000000"
 preserveAspectRatio="xMidYMid meet">
<g transform="translate(0.000000,234.000000) scale(0.100000,-0.100000)"
fill="#43358b" stroke="none">
<path d="M886 2009 c-14 -11 -26 -29 -26 -39 0 -17 -29 -46 -80 -80 -107 -71
-214 -195 -268 -310 -51 -110 -64 -167 -70 -297 -5 -119 -2 -137 34 -242 3
-10 10 -8 28 10 56 55 105 78 189 86 60 5 74 10 93 33 38 44 121 82 194 87 55
5 69 10 92 34 15 16 32 29 37 29 6 0 20 -21 32 -47 11 -27 26 -61 34 -78 7
-16 23 -55 34 -85 12 -30 26 -64 31 -75 19 -43 59 -138 86 -205 9 -25 26 -65
36 -90 11 -25 24 -56 29 -70 6 -14 17 -38 25 -53 8 -16 14 -33 14 -38 0 -6 9
-31 21 -57 11 -26 27 -63 35 -82 8 -19 19 -43 24 -52 6 -10 10 -22 10 -28 0
-5 13 -38 28 -72 16 -35 34 -75 40 -91 10 -24 16 -27 61 -27 57 0 66 8 50 47
-6 15 -16 39 -21 53 -6 14 -16 39 -23 55 -24 52 -51 119 -65 155 -7 19 -22 55
-32 80 -11 25 -24 56 -30 70 -5 14 -16 39 -24 55 -7 17 -16 42 -20 58 -3 15
-10 27 -14 27 -4 0 -11 12 -14 28 -4 15 -13 41 -20 57 -8 17 -19 44 -26 60
-23 57 -42 100 -56 128 -8 16 -14 33 -14 38 0 9 -13 41 -50 124 -5 11 -18 43
-30 70 -11 28 -25 58 -30 67 -14 25 29 52 68 43 23 -5 34 0 58 24 49 50 121
83 194 88 53 4 70 10 95 33 61 56 116 82 183 88 61 5 63 6 58 28 -13 49 -111
171 -171 212 -22 15 -49 35 -60 45 -25 23 -106 61 -175 82 -30 9 -66 21 -80
25 -45 16 -174 20 -255 10 -44 -6 -100 -13 -124 -17 -24 -3 -46 -1 -50 4 -14
22 -58 23 -85 2z m529 -116 c28 -9 59 -22 70 -30 11 -7 25 -13 32 -13 18 0
111 -59 151 -94 18 -17 31 -36 30 -44 -3 -13 -46 -43 -107 -74 -22 -12 -27 -8
-80 48 -89 97 -211 179 -281 190 -46 8 -54 30 -12 37 42 8 142 -3 197 -20z
m-358 -61 c63 -63 93 -98 123 -147 13 -22 30 -46 37 -53 7 -7 13 -18 13 -23 0
-5 12 -28 26 -50 31 -49 26 -69 -18 -69 -18 0 -46 -7 -62 -15 -15 -8 -35 -15
-43 -15 -16 0 -84 -38 -93 -52 -3 -4 -16 -9 -29 -10 -21 -3 -26 3 -37 47 -7
28 -22 85 -33 129 -14 53 -21 109 -21 173 l0 95 30 11 c17 6 30 15 30 19 0 21
33 4 77 -40z m-273 -104 c-3 -13 -15 -42 -25 -65 -11 -23 -19 -48 -19 -55 0
-8 -5 -19 -12 -26 -7 -7 -14 -68 -17 -169 l-6 -158 -54 -8 c-30 -4 -60 -12
-67 -18 -28 -23 -37 2 -30 89 3 47 10 90 15 96 5 6 12 27 16 46 17 79 123 241
181 277 26 16 26 16 18 -9z"/>
<path d="M1819 1013 l-178 -178 -58 -5 c-55 -5 -58 -6 -55 -30 1 -14 7 -26 12
-28 6 -2 10 -12 10 -23 0 -35 36 -59 88 -59 l47 0 228 227 c125 125 227 229
227 231 0 2 -10 12 -22 23 -16 12 -39 18 -72 19 l-49 0 -178 -177z"/>
<path d="M1930 804 l-195 -193 -57 -1 c-51 0 -58 -2 -58 -20 0 -11 4 -28 9
-38 5 -9 17 -37 28 -61 l19 -44 216 2 c213 2 216 2 237 -20 12 -13 21 -29 21
-37 0 -8 6 -26 14 -40 7 -15 22 -46 32 -69 11 -24 21 -43 24 -44 23 -4 63 -4
70 1 6 4 6 27 0 60 -26 141 -26 138 12 145 18 4 52 5 73 3 l40 -3 3 60 c5 90
-1 105 -45 105 -20 0 -43 7 -52 15 -9 8 -45 39 -81 67 -36 29 -71 58 -78 65
-7 7 -18 13 -23 13 -25 0 -4 43 43 89 l53 50 -45 46 c-24 25 -49 44 -55 43 -5
-1 -98 -88 -205 -194z m152 -97 c7 -7 30 -26 51 -41 62 -47 48 -58 -73 -58
-69 0 -106 4 -108 12 -5 14 78 96 100 98 9 1 23 -4 30 -11z"/>
<path d="M525 808 c-20 -18 -26 -33 -28 -68 l-2 -45 403 -3 c398 -2 402 -2
402 18 0 11 -4 28 -8 38 -5 9 -15 31 -23 47 l-15 30 -351 3 -352 2 -26 -22z"/>
<path d="M501 601 c-10 -6 -15 -31 -15 -80 -2 -78 -2 -77 68 -72 15 2 39 0 53
-4 25 -6 25 -6 18 -88 -4 -45 -11 -86 -16 -92 -18 -19 -8 -25 41 -25 31 0 50
4 50 11 0 7 9 30 19 53 35 76 51 114 51 124 0 18 67 23 348 21 156 0 286 2
289 4 2 3 -5 24 -16 48 -12 23 -21 49 -21 56 0 7 -9 22 -20 33 -19 19 -33 20
-427 20 -225 0 -414 -4 -422 -9z"/>
</g>
</svg>
