<?xml version="1.0" standalone="no"?>
<!DOCTYPE svg PUBLIC "-//W3C//DTD SVG 20010904//EN"
 "http://www.w3.org/TR/2001/REC-SVG-20010904/DTD/svg10.dtd">
<svg version="1.0" xmlns="http://www.w3.org/2000/svg"
 width="231.000000pt" height="234.000000pt" viewBox="0 0 231.000000 234.000000"
 preserveAspectRatio="xMidYMid meet">
<g transform="translate(0.000000,234.000000) scale(0.100000,-0.100000)"
fill="#43358a" stroke="none">
<path d="M1165 2294 c-72 -18 -136 -67 -184 -139 l-26 -40 -5 -577 -5 -576
-51 -54 c-89 -93 -135 -222 -136 -378 -2 -132 51 -257 150 -357 35 -34 70 -63
78 -63 8 0 14 -4 14 -10 0 -5 12 -13 28 -16 15 -4 33 -12 41 -18 9 -7 64 -11
145 -11 124 0 134 2 189 28 99 49 214 173 233 253 4 16 12 35 18 43 17 21 15
310 -3 347 -60 130 -58 126 -118 191 l-42 45 -3 567 c-3 626 1 581 -69 672
-52 67 -177 112 -254 93z m138 -179 c20 -20 39 -48 43 -63 3 -15 10 -37 15
-50 5 -13 9 -258 9 -577 l0 -554 40 -33 c49 -39 99 -122 122 -203 22 -75 22
-109 2 -171 -42 -129 -74 -174 -166 -229 -59 -36 -68 -38 -148 -39 -90 -1
-132 12 -197 61 -38 29 -103 124 -103 150 0 10 -7 29 -16 41 -12 17 -15 40
-11 100 4 72 23 160 36 172 4 3 18 23 33 46 14 22 44 56 67 74 l41 34 0 574
c0 550 1 574 20 611 30 59 76 91 131 91 39 0 51 -5 82 -35z"/>
<path d="M1186 1405 c-15 -15 -16 -50 -16 -306 1 -159 -1 -293 -4 -298 -3 -5
-25 -18 -49 -29 -77 -36 -133 -141 -124 -230 6 -62 21 -116 38 -138 75 -94
172 -126 265 -88 55 22 121 95 130 142 4 20 10 44 15 53 13 26 -16 143 -48
191 -15 24 -43 50 -60 59 -17 9 -43 23 -57 33 l-26 16 -2 303 c-3 299 -3 302
-24 305 -12 2 -29 -4 -38 -13z"/>
</g>
</svg>
