<?xml version="1.0" standalone="no"?>
<!DOCTYPE svg PUBLIC "-//W3C//DTD SVG 20010904//EN"
 "http://www.w3.org/TR/2001/REC-SVG-20010904/DTD/svg10.dtd">
<svg version="1.0" xmlns="http://www.w3.org/2000/svg"
 width="225.000000pt" height="222.000000pt" viewBox="0 0 225.000000 222.000000"
 preserveAspectRatio="xMidYMid meet">
<g transform="translate(0.000000,222.000000) scale(0.100000,-0.100000)"
fill="#43358b" stroke="none">
<path d="M839 2048 c0 -2 -5 -39 -9 -83 -5 -44 -16 -120 -25 -170 -8 -49 -22
-133 -31 -185 -8 -52 -22 -133 -29 -180 -8 -47 -20 -121 -26 -165 -5 -44 -15
-96 -20 -115 -6 -19 -14 -66 -19 -105 -11 -90 -27 -191 -46 -280 -8 -38 -14
-85 -14 -103 0 -44 -30 -55 -142 -50 -47 2 -89 0 -93 -4 -6 -5 135 -171 319
-378 18 -19 57 -65 88 -101 l56 -67 44 47 c35 36 120 133 179 205 4 4 165 8
358 7 192 0 352 3 355 7 11 18 -12 29 -59 28 l-50 -1 -5 680 c-3 374 -7 682
-8 684 -1 2 -13 1 -25 -3 -34 -8 -56 13 -59 59 l-3 40 -258 5 c-157 3 -262 1
-268 -4 -5 -6 -9 -27 -9 -47 0 -42 -10 -52 -50 -51 -31 1 -40 -16 -40 -78 0
-28 -17 -78 -21 -60 0 3 -7 50 -14 105 -12 87 -32 214 -51 323 -5 26 -21 53
-25 40z m711 -288 c0 -45 -25 -50 -240 -50 -215 0 -240 5 -240 50 l0 30 240 0
240 0 0 -30z m78 -92 c15 -15 17 -1274 2 -1298 -7 -11 -35 -16 -116 -18 -58
-2 -121 -1 -140 3 l-34 6 0 93 c0 71 -4 97 -15 106 -12 10 -13 16 -3 27 19 23
-3 29 -104 27 -89 -2 -128 6 -128 26 0 5 15 10 33 12 31 3 32 4 35 54 2 39 -1
53 -13 57 -28 12 -45 -4 -45 -42 0 -47 -17 -75 -24 -40 -6 34 -25 169 -35 261
-5 42 -12 82 -16 88 -27 44 -58 607 -35 635 10 13 62 15 319 15 225 0 310 -3
319 -12z m-348 -1223 c0 -74 -2 -85 -17 -86 -93 -5 -128 -3 -128 9 0 18 117
161 133 161 9 1 12 -22 12 -84z"/>
<path d="M1108 1495 c-4 -54 2 -68 28 -63 16 3 19 12 19 53 0 44 -3 50 -21 53
-19 3 -22 -2 -26 -43z"/>
<path d="M1284 1516 c-3 -13 -4 -37 -2 -52 2 -23 8 -29 28 -29 20 0 26 6 28
29 5 45 -6 76 -28 76 -12 0 -22 -9 -26 -24z"/>
<path d="M1456 1531 c-3 -5 -8 -27 -11 -49 -4 -33 -2 -42 14 -47 32 -10 50 4
49 38 0 18 -5 40 -10 50 -9 18 -33 23 -42 8z"/>
<path d="M1112 1335 c-4 -8 -6 -35 -4 -60 4 -41 7 -46 26 -43 18 3 21 11 24
54 3 45 0 52 -18 57 -11 3 -23 -1 -28 -8z"/>
<path d="M1292 1338 c-13 -13 -16 -66 -6 -92 8 -21 40 -21 48 0 15 40 1 104
-24 104 -3 0 -11 -5 -18 -12z"/>
<path d="M1447 1333 c-8 -14 -5 -67 4 -85 23 -42 63 -3 57 55 -2 26 -8 33 -30
35 -14 2 -28 0 -31 -5z"/>
<path d="M1107 1153 c-2 -5 -3 -28 -1 -53 2 -25 3 -49 3 -53 1 -5 11 -7 24 -5
18 2 23 11 28 51 4 39 2 50 -12 58 -21 11 -36 12 -42 2z"/>
<path d="M1292 1152 c-9 -6 -12 -26 -10 -58 3 -45 5 -49 28 -49 24 0 25 3 25
55 0 56 -13 71 -43 52z"/>
<path d="M1444 1100 c0 -38 4 -51 17 -55 33 -11 45 4 45 55 0 49 0 50 -31 50
-31 0 -31 -1 -31 -50z"/>
<path d="M1113 946 c-5 -8 -7 -36 -5 -61 4 -41 7 -46 26 -43 18 3 21 11 24 52
2 32 -1 52 -10 57 -19 12 -26 11 -35 -5z"/>
<path d="M1292 948 c-13 -13 -16 -66 -6 -92 8 -21 40 -21 48 0 15 40 1 104
-24 104 -3 0 -11 -5 -18 -12z"/>
<path d="M1446 942 c-3 -5 -3 -26 -1 -48 5 -34 18 -53 37 -54 14 0 29 42 26
73 -2 26 -8 33 -30 35 -14 2 -29 -1 -32 -6z"/>
<path d="M1292 761 c-9 -5 -12 -25 -10 -57 3 -45 5 -49 28 -49 23 0 25 4 28
49 3 44 -6 66 -28 66 -3 0 -11 -4 -18 -9z"/>
<path d="M1449 758 c0 -2 -2 -24 -4 -50 -2 -38 1 -49 15 -53 36 -11 50 5 50
56 0 48 -1 49 -30 49 -16 0 -30 -1 -31 -2z"/>
<path d="M1448 553 c-2 -4 -4 -24 -4 -43 1 -32 4 -35 31 -35 28 0 30 2 30 40
0 36 -3 40 -27 43 -14 2 -28 0 -30 -5z"/>
</g>
</svg>
