<?xml version="1.0" standalone="no"?>
<!DOCTYPE svg PUBLIC "-//W3C//DTD SVG 20010904//EN"
 "http://www.w3.org/TR/2001/REC-SVG-20010904/DTD/svg10.dtd">
<svg version="1.0" xmlns="http://www.w3.org/2000/svg"
 width="83.000000pt" height="73.000000pt" viewBox="0 0 83.000000 73.000000"
 preserveAspectRatio="xMidYMid meet">
<g transform="translate(0.000000,73.000000) scale(0.100000,-0.100000)"
fill="#433a72" stroke="none">
<path d="M302 579 c-35 -4 -80 -16 -100 -26 -33 -16 -37 -22 -35 -52 2 -56 49
-111 138 -162 88 -51 135 -90 135 -113 0 -8 -18 -36 -40 -61 -46 -53 -52 -91
-19 -121 21 -19 22 -19 33 0 27 46 66 80 131 114 48 26 74 46 84 67 13 27 12
33 -12 80 -15 28 -27 58 -27 67 0 9 23 43 50 74 28 31 50 65 50 74 0 50 -211
82 -388 59z m233 -19 c182 -26 177 -57 -13 -81 -104 -13 -237 -4 -310 22 -41
14 -40 25 2 39 80 26 216 35 321 20z m-115 -104 c78 0 152 5 174 12 22 6 41
10 42 9 1 -1 -11 -17 -27 -35 -29 -32 -32 -33 -129 -39 -56 -3 -100 -10 -100
-16 0 -6 35 -8 95 -4 l95 5 0 -24 c0 -18 -5 -24 -22 -24 -34 0 -68 -11 -68
-21 0 -5 24 -6 54 -3 48 6 55 4 65 -14 16 -30 15 -32 -24 -32 -19 0 -35 -5
-35 -11 0 -8 14 -10 40 -6 22 3 40 1 40 -4 0 -18 -47 -57 -101 -84 -60 -30
-109 -72 -109 -93 0 -22 -25 -8 -28 17 -2 14 11 39 37 70 23 27 41 59 41 71 0
31 -43 69 -132 118 -71 39 -138 101 -138 128 0 9 13 8 48 -3 32 -11 89 -16
182 -17z"/>
</g>
</svg>
