<?xml version="1.0" standalone="no"?>
<!DOCTYPE svg PUBLIC "-//W3C//DTD SVG 20010904//EN"
 "http://www.w3.org/TR/2001/REC-SVG-20010904/DTD/svg10.dtd">
<svg version="1.0" xmlns="http://www.w3.org/2000/svg"
 width="108.000000pt" height="93.000000pt" viewBox="0 0 108.000000 93.000000"
 preserveAspectRatio="xMidYMid meet">
<g transform="translate(0.000000,93.000000) scale(0.100000,-0.100000)"
fill="#433589" stroke="none">
<path d="M507 780 c-27 -44 -52 -80 -56 -80 -5 0 -14 7 -21 15 -20 24 -25 18
-25 -29 0 -44 -5 -52 -87 -149 -27 -32 -32 -46 -32 -91 0 -37 6 -62 22 -87
l22 -34 0 56 c0 43 5 63 21 80 l20 24 -7 -25 c-3 -14 -10 -29 -15 -34 -14 -15
-11 -26 5 -20 8 3 19 -3 26 -15 12 -23 6 -39 -61 -148 -21 -34 -35 -63 -30
-63 5 0 53 9 106 20 53 11 101 20 106 20 4 0 10 -42 11 -93 l3 -92 43 -1 42
-2 0 94 c0 52 4 94 9 94 4 0 54 -9 110 -21 57 -11 104 -19 106 -17 2 2 -26 53
-62 113 -84 141 -82 137 -44 124 17 -6 35 -9 40 -7 5 1 -12 39 -39 83 -27 44
-50 83 -50 86 0 3 14 3 32 1 32 -5 32 -5 17 19 -9 13 -47 74 -84 134 -38 61
-71 113 -74 117 -4 4 -28 -28 -54 -72z m122 -69 c34 -54 61 -101 61 -104 0 -3
-17 -3 -37 -1 -32 5 -36 3 -23 -8 18 -15 100 -145 100 -158 0 -5 -19 -3 -41 5
-55 20 -69 19 -43 -3 19 -15 124 -185 139 -224 5 -14 -5 -13 -82 3 -111 23
-185 23 -295 0 -49 -10 -88 -16 -88 -14 0 3 19 36 42 75 l42 71 10 -30 c10
-26 14 -29 37 -23 68 19 108 76 109 154 l0 40 -20 -22 c-24 -26 -52 -28 -74
-6 -20 20 -20 23 3 82 16 40 17 56 9 93 -10 42 -9 47 32 112 23 37 46 65 50
62 5 -3 36 -49 69 -104z m-49 -571 c0 -89 0 -90 -25 -90 -25 0 -25 1 -25 90 0
89 0 90 25 90 25 0 25 -1 25 -90z"/>
</g>
</svg>
