<?xml version="1.0" standalone="no"?>
<!DOCTYPE svg PUBLIC "-//W3C//DTD SVG 20010904//EN"
 "http://www.w3.org/TR/2001/REC-SVG-20010904/DTD/svg10.dtd">
<svg version="1.0" xmlns="http://www.w3.org/2000/svg"
 width="237.000000pt" height="177.000000pt" viewBox="0 0 237.000000 177.000000"
 preserveAspectRatio="xMidYMid meet">
<g transform="translate(0.000000,177.000000) scale(0.100000,-0.100000)"
fill="#43358a" stroke="none">
<path d="M1080 1530 c-8 -5 -26 -10 -39 -10 -23 0 -170 -65 -181 -80 -3 -3
-31 -26 -62 -51 -56 -44 -127 -123 -223 -249 -27 -36 -55 -71 -63 -79 -7 -8
-21 -26 -30 -40 -32 -49 -56 -76 -150 -168 l-94 -91 2 -183 c0 -101 3 -185 6
-188 2 -3 10 1 16 7 7 7 24 12 40 12 15 0 49 7 75 16 54 19 141 21 171 5 18
-10 120 -32 152 -33 29 0 143 23 164 34 27 14 127 13 155 -2 22 -11 123 -33
151 -31 42 1 145 23 156 32 17 14 125 14 151 0 23 -12 126 -33 163 -33 37 0
140 21 162 33 28 15 109 13 160 -4 24 -8 61 -17 83 -18 l40 -4 3 57 c3 50 0
58 -19 69 -29 15 -122 40 -176 46 -41 5 -157 -18 -199 -39 -32 -15 -204 12
-204 33 0 4 -12 10 -26 13 -31 8 -37 13 -119 91 -98 94 -130 164 -129 285 1
73 5 92 28 135 37 68 82 113 134 136 53 23 78 24 128 4 96 -38 159 -94 170
-152 3 -17 15 -41 25 -52 16 -17 24 -19 40 -10 18 9 20 17 14 57 -13 95 -51
178 -119 263 -41 52 -124 119 -147 119 -5 0 -9 5 -9 10 0 6 -6 10 -12 10 -7 0
-26 7 -43 16 -16 8 -50 20 -75 26 -62 15 -251 21 -270 8z"/>
<path d="M345 275 c-22 -8 -52 -15 -67 -15 -15 0 -30 -5 -33 -11 -11 -17 -11
-120 1 -129 6 -6 46 1 100 17 108 32 127 32 229 4 92 -25 174 -24 270 3 98 28
106 29 128 18 38 -18 110 -34 172 -39 59 -5 197 20 222 40 15 11 42 7 140 -22
72 -21 202 -29 217 -14 12 12 108 35 146 35 19 1 62 -7 95 -17 33 -10 75 -18
94 -19 l33 -1 0 59 c1 63 -8 76 -53 76 -14 0 -30 5 -37 12 -7 7 -52 14 -113
16 -79 4 -110 1 -147 -14 -62 -23 -154 -23 -214 0 -38 15 -67 18 -146 14 -66
-2 -105 -8 -117 -18 -23 -19 -167 -19 -191 1 -24 20 -254 20 -278 0 -23 -20
-169 -19 -192 0 -25 20 -208 23 -259 4z"/>
</g>
</svg>
