<?xml version="1.0" standalone="no"?>
<!DOCTYPE svg PUBLIC "-//W3C//DTD SVG 20010904//EN"
 "http://www.w3.org/TR/2001/REC-SVG-20010904/DTD/svg10.dtd">
<svg version="1.0" xmlns="http://www.w3.org/2000/svg"
 width="84.000000pt" height="80.000000pt" viewBox="0 0 84.000000 80.000000"
 preserveAspectRatio="xMidYMid meet">
<g transform="translate(0.000000,80.000000) scale(0.100000,-0.100000)"
fill="#43358a" stroke="none">
<path d="M443 756 c0 -45 -4 -53 -77 -140 -30 -37 -40 -57 -44 -95 -5 -52 10
-112 32 -130 11 -9 13 -3 9 32 -4 32 0 54 15 83 l21 39 1 -35 c0 -19 15 -65
33 -101 31 -64 33 -65 62 -58 39 11 73 43 91 85 16 39 19 104 4 104 -5 0 -10
-5 -10 -10 0 -6 -11 -16 -25 -22 -21 -9 -28 -8 -45 7 -23 21 -25 50 -5 85 30
53 14 130 -37 178 l-25 22 0 -44z"/>
<path d="M223 368 c-37 -48 -25 -70 54 -103 l65 -28 -69 -36 c-59 -31 -68 -39
-65 -61 1 -14 9 -31 17 -39 15 -15 13 -16 172 54 l62 28 106 -47 c58 -26 113
-45 120 -42 16 6 30 49 22 69 -4 11 -450 217 -468 217 -4 0 -11 -6 -16 -12z"/>
<path d="M582 341 l-83 -38 58 -25 c55 -24 60 -24 93 -9 51 23 60 31 60 57 0
21 -24 55 -38 53 -4 0 -44 -18 -90 -38z"/>
</g>
</svg>
