<?xml version="1.0" standalone="no"?>
<!DOCTYPE svg PUBLIC "-//W3C//DTD SVG 20010904//EN"
 "http://www.w3.org/TR/2001/REC-SVG-20010904/DTD/svg10.dtd">
<svg version="1.0" xmlns="http://www.w3.org/2000/svg"
 width="246.000000pt" height="174.000000pt" viewBox="0 0 246.000000 174.000000"
 preserveAspectRatio="xMidYMid meet">
<g transform="translate(0.000000,174.000000) scale(0.100000,-0.100000)"
fill="#43358a" stroke="none">
<path d="M1063 1551 c-40 -3 -78 -12 -85 -18 -6 -7 -20 -13 -29 -13 -23 0
-110 -87 -131 -130 -9 -19 -24 -62 -35 -95 -18 -60 -18 -60 -58 -61 -135 -5
-233 -87 -265 -221 -11 -45 -11 -63 0 -106 28 -112 81 -171 186 -208 53 -19
80 -20 642 -17 l587 3 45 30 c69 47 101 102 103 177 3 113 -59 193 -168 217
-83 18 -89 22 -96 73 -7 47 -42 112 -81 148 -49 46 -99 63 -186 65 l-84 1 -41
46 c-53 59 -108 92 -175 107 -29 6 -54 10 -55 9 -1 -1 -34 -4 -74 -7z"/>
<path d="M1202 555 c-7 -14 -12 -48 -12 -75 0 -27 -5 -52 -10 -55 -6 -4 -31 5
-56 20 -55 32 -107 32 -112 -1 -2 -14 7 -29 25 -43 15 -11 33 -25 39 -30 6 -5
20 -12 32 -15 36 -12 26 -30 -38 -70 -64 -41 -73 -61 -40 -91 21 -19 15 -21
113 31 15 8 32 12 37 9 6 -3 10 -35 10 -69 0 -72 14 -92 55 -82 23 6 25 11 25
65 0 65 7 91 22 91 6 0 33 -14 60 -30 60 -37 85 -38 100 -4 10 22 9 28 -15 50
-14 13 -30 24 -35 24 -12 0 -62 46 -62 57 0 5 22 19 49 31 56 27 81 62 61 87
-18 22 -56 18 -105 -11 -25 -14 -49 -23 -55 -19 -5 3 -10 31 -10 61 0 31 -5
64 -10 75 -15 28 -54 24 -68 -6z"/>
<path d="M687 554 c-4 -4 -7 -18 -7 -30 0 -30 -12 -36 -45 -24 -20 7 -31 7
-41 -1 -19 -16 -18 -26 6 -46 26 -22 25 -26 -5 -59 -31 -33 -24 -42 35 -46 41
-3 45 -6 48 -31 6 -52 62 -43 62 10 0 21 4 24 23 20 12 -2 30 -8 39 -12 13 -5
19 0 24 21 6 22 3 31 -14 42 -27 18 -28 39 -2 47 13 4 20 15 20 32 0 23 -3 24
-42 21 -40 -3 -43 -1 -48 27 -5 29 -36 46 -53 29z"/>
<path d="M1752 551 c-8 -4 -12 -17 -10 -27 3 -16 -4 -19 -40 -20 -23 0 -47 -5
-53 -11 -13 -13 -1 -41 22 -48 23 -8 25 -33 4 -41 -27 -11 -37 -41 -19 -59 12
-11 20 -13 27 -6 6 6 21 11 34 11 17 0 23 -6 23 -23 0 -13 8 -31 18 -41 18
-15 20 -15 35 2 10 10 17 28 17 40 0 24 28 30 46 12 17 -17 44 0 44 26 0 13
-9 28 -20 34 -11 6 -20 17 -20 25 0 7 9 17 20 20 13 4 20 15 20 32 0 24 -2 25
-40 20 -33 -4 -42 -2 -50 14 -6 10 -8 19 -4 19 3 0 1 7 -6 15 -14 17 -29 19
-48 6z"/>
</g>
</svg>
