<?xml version="1.0" standalone="no"?>
<!DOCTYPE svg PUBLIC "-//W3C//DTD SVG 20010904//EN"
 "http://www.w3.org/TR/2001/REC-SVG-20010904/DTD/svg10.dtd">
<svg version="1.0" xmlns="http://www.w3.org/2000/svg"
 width="73.000000pt" height="58.000000pt" viewBox="0 0 73.000000 58.000000"
 preserveAspectRatio="xMidYMid meet">
<g transform="translate(0.000000,58.000000) scale(0.100000,-0.100000)"
fill="#43358a" stroke="none">
<path d="M279 495 c-15 -8 -34 -32 -43 -55 -13 -32 -21 -40 -41 -40 -40 0 -75
-42 -75 -89 0 -32 6 -44 31 -65 l31 -26 204 0 c126 0 213 4 225 11 52 27 41
110 -17 129 -19 6 -34 18 -34 25 0 30 -45 66 -88 72 -23 3 -42 9 -42 14 0 15
-58 39 -92 39 -18 -1 -45 -7 -59 -15z"/>
<path d="M356 142 c-14 -28 -26 -60 -26 -70 0 -46 68 -59 95 -18 17 26 12 47
-23 106 l-20 33 -26 -51z"/>
<path d="M496 155 c-20 -41 -18 -63 6 -78 12 -8 21 -7 32 2 21 18 20 50 -3 84
l-18 28 -17 -36z"/>
<path d="M226 146 c-23 -48 -2 -85 38 -70 23 9 27 33 11 70 -18 43 -28 43 -49
0z"/>
</g>
</svg>
