<?xml version="1.0" standalone="no"?>
<!DOCTYPE svg PUBLIC "-//W3C//DTD SVG 20010904//EN"
 "http://www.w3.org/TR/2001/REC-SVG-20010904/DTD/svg10.dtd">
<svg version="1.0" xmlns="http://www.w3.org/2000/svg"
 width="291.000000pt" height="225.000000pt" viewBox="0 0 291.000000 225.000000"
 preserveAspectRatio="xMidYMid meet">
<g transform="translate(0.000000,225.000000) scale(0.100000,-0.100000)"
fill="#43358a" stroke="none">
<path d="M1530 2230 c0 -11 -7 -23 -15 -26 -8 -4 -15 -11 -15 -16 0 -6 -29
-59 -65 -118 -36 -59 -65 -113 -65 -119 0 -6 -3 -11 -7 -11 -5 0 -19 -25 -33
-55 -18 -39 -31 -55 -45 -55 -12 0 -80 60 -182 162 l-163 163 -256 -255 c-140
-140 -264 -268 -276 -283 l-20 -28 125 2 c69 0 130 -2 136 -6 8 -4 11 -139 11
-433 0 -409 -1 -428 -20 -457 -15 -22 -18 -39 -13 -65 3 -19 10 -38 16 -41 5
-4 7 -14 4 -23 -5 -13 -29 -16 -134 -18 l-128 -3 270 -272 c148 -150 274 -273
280 -273 8 0 555 540 559 552 1 2 233 5 516 8 l515 5 19 35 19 35 -32 65 c-17
36 -35 72 -40 80 -6 8 -32 53 -59 100 -28 47 -59 101 -71 120 -11 19 -29 51
-39 71 -10 19 -42 74 -70 121 -29 47 -52 91 -52 97 0 6 -4 11 -9 11 -5 0 -12
11 -15 25 -4 14 -11 25 -16 25 -6 0 -10 6 -10 14 0 8 -6 21 -13 28 -7 7 -18
24 -24 38 -7 14 -26 48 -43 75 -17 28 -36 62 -42 78 -7 15 -16 27 -20 27 -4 0
-8 5 -8 11 0 6 -29 60 -65 119 -36 59 -65 111 -65 115 0 5 -11 23 -25 41 -14
18 -25 36 -25 40 0 3 -19 39 -43 78 -24 39 -46 78 -50 86 -4 8 -18 33 -32 55
-14 22 -30 52 -37 68 -11 25 -17 27 -70 27 -52 0 -58 -2 -58 -20z m-350 -355
c121 -121 219 -226 218 -234 -2 -11 -24 -15 -103 -15 l-100 -1 -3 -547 -2
-547 102 2 c96 2 103 1 106 -18 2 -15 -60 -82 -228 -250 l-230 -229 -223 219
c-198 196 -256 259 -244 271 2 2 49 4 105 5 l102 2 -2 546 -3 546 -95 1 c-72
1 -96 5 -98 16 -4 20 439 459 460 456 10 -2 117 -102 238 -223z m459 -102 c16
-10 32 -27 35 -38 3 -11 6 -145 6 -297 l0 -277 36 -34 c37 -34 74 -112 74
-154 0 -11 -12 -45 -27 -73 -42 -81 -127 -126 -203 -108 -106 26 -160 90 -160
188 0 65 26 121 69 151 20 14 21 21 22 302 l1 288 34 35 c39 38 67 43 113 17z"/>
<path d="M1580 1568 c-1 -7 0 -104 0 -215 1 -210 -3 -253 -25 -253 -16 0 -73
-64 -86 -97 -12 -31 11 -83 53 -118 48 -41 122 -30 166 23 6 9 12 42 12 73 0
63 -22 99 -67 113 -22 7 -23 9 -25 243 -2 178 -6 237 -15 241 -7 2 -13 -2 -13
-10z"/>
</g>
</svg>
